<svg xmlns="http://www.w3.org/2000/svg" viewBox="-5 0 32.57 22.9" width="1433" height="1008">
<style>
.sheet { fill: #fbfbfa; }
.squares { pointer-events: none; }
.grid { fill: none; stroke: #d9d6d0; stroke-width: 0.02; }
.stacked { fill: #cc2936; opacity: 0.22; pointer-events: none; }
.junction { pointer-events: none; }
.junction rect { fill: currentcolor; opacity: 0.1; }
.junction.clashing rect { fill: #cc2936; opacity: 0.14; }
.tint-0 { color: #1f6feb; }
.tint-1 { color: #14866d; }
.tint-2 { color: #a55b12; }
.tint-3 { color: #8250df; }
.tint-4 { color: #b3417a; }
.tint-5 { color: #56761c; }
.track { fill: none; stroke: #12151a; stroke-width: 0.15; stroke-linecap: round; }
.block-body { fill: #ffffff; stroke: #12151a; stroke-width: 0.045; }
.track.cut { stroke-linecap: butt; }
.plaque { fill: #12151a; }
.lamp.clear { fill: #17a24a; }
.lamp.danger { fill: #e0332a; }
.stop, .mark, .portal-mouth, .tick { fill: none; stroke: #12151a; stroke-linecap: butt; }
.mark { stroke-width: 0.045; }
.stop { stroke-width: 0.18; }
.portal-mouth { stroke: #7c8087; stroke-width: 0.03; }
.tick { stroke-width: 0.045; }
.wireline { stroke: #1f6feb; stroke-width: 2; stroke-dasharray: 6, 4; vector-effect: non-scaling-stroke; pointer-events: none; }
.symbol.selected .track, .symbol.selected .wire { stroke: #1f6feb; }
.symbol.selected .block-body, .symbol.selected .opaque { stroke: #1f6feb; }
.wire { stroke: #12151a; stroke-width: 0.15; stroke-linecap: round; }
.opaque { fill: rgb(237, 234, 228); stroke: #12151a; stroke-width: 0.075; stroke-dasharray: 0.3, 0.15; }
.symbol .track.lit { stroke: #a55b12; stroke-width: 0.24; }
.symbol .bend.lit { fill: #a55b12; }
.symbol .tick.lit { stroke: #a55b12; stroke-width: 0.0675; }
.symbol .block-body.lit, .symbol .opaque.lit { fill: #f4e3cd; stroke: #a55b12; }
.name { font: 0.22px system-ui, sans-serif; fill: #1c1f24; text-anchor: middle; dominant-baseline: middle; pointer-events: none; }
.pin { fill: #22c55e; }
.pin.red { fill: #cc2936; }
.pin.pending { fill: #1f6feb; }
.ghost { opacity: 0.45; pointer-events: none; }
.ghost.blocked { opacity: 0.3; }
.band { fill: #1f6feb; fill-opacity: 0.08; stroke: #1f6feb; stroke-width: 1; stroke-dasharray: 4, 3; vector-effect: non-scaling-stroke; }
</style>
<defs>
          <pattern id="grid" width="1" height="1" patternUnits="userSpaceOnUse">
            <path class="grid" d="M1 0 V1 H0"></path>
          </pattern>
          
  <clipPath clipPathUnits="userSpaceOnUse" id="portal-cut">
    <path d="M-1 -1 L1.305 -1 L0.075 2 L-1 2 Z"></path>
  </clipPath>
        </defs>
        <rect class="sheet" x="-5" y="0" width="32.57499924302101" height="22.899999618530273"></rect>
        <rect class="squares" fill="url(#grid)" x="-5" y="0" width="32.57499924302101" height="22.899999618530273"></rect>
        
        <g class="junction tint-0 ">
          <rect width="1" height="1" x="-1" y="5"></rect><rect width="1" height="1" x="-3" y="5"></rect><rect width="1" height="1" x="15" y="4"></rect><rect width="1" height="1" x="0" y="5"></rect><rect width="1" height="1" x="15" y="3"></rect><rect width="1" height="1" x="14" y="5"></rect><rect width="1" height="1" x="24" y="4"></rect><rect width="1" height="1" x="25" y="3"></rect><rect width="1" height="1" x="5" y="1"></rect><rect width="1" height="1" x="2" y="5"></rect><rect width="1" height="1" x="5" y="5"></rect><rect width="1" height="1" x="2" y="1"></rect><rect width="1" height="1" x="3" y="3"></rect><rect width="1" height="1" x="4" y="3"></rect>
        </g>
      
        <g class="junction tint-1 ">
          <rect width="1" height="1" x="-4" y="14"></rect><rect width="1" height="1" x="-1" y="16"></rect>
        </g>
      
        <g class="junction tint-2 ">
          <rect width="1" height="1" x="22" y="15"></rect><rect width="1" height="1" x="20" y="13"></rect>
        </g>
      
        <g class="junction tint-3 ">
          <rect width="1" height="1" x="22" y="16"></rect>
        </g>
      
        <g class="junction tint-4 ">
          <rect width="1" height="1" x="12" y="18"></rect><rect width="1" height="1" x="10" y="20"></rect>
        </g>
       <line class="wire" x1="15.5" y1="4" x2="15.5" y2="4"></line><line class="wire" x1="14" y1="3.5" x2="15" y2="3.5"></line><line class="wire" x1="16" y1="3.5" x2="17" y2="3.5"></line><line class="wire" x1="16" y1="4.5" x2="17" y2="4.5"></line><line class="wire" x1="15" y1="5.5" x2="17" y2="5.5"></line><line class="wire" x1="14.5" y1="5" x2="15" y2="4.5"></line><line class="wire" x1="23" y1="3.5" x2="25" y2="3.5"></line><line class="wire" x1="23" y1="4.5" x2="24" y2="4.5"></line><line class="wire" x1="24.5" y1="5" x2="24" y2="5.5"></line><line class="wire" x1="24" y1="5.5" x2="23" y2="5.5"></line><line class="wire" x1="25" y1="4.5" x2="25.5" y2="4"></line><line class="wire" x1="8" y1="3.5" x2="8" y2="3.5"></line><line class="wire" x1="5.5" y1="2" x2="4.5" y2="3"></line><line class="wire" x1="2.5" y1="5" x2="3.5" y2="4"></line><line class="wire" x1="5" y1="5.5" x2="3" y2="5.5"></line><line class="wire" x1="5.5" y1="5" x2="4.5" y2="4"></line><line class="wire" x1="3" y1="1.5" x2="5" y2="1.5"></line><line class="wire" x1="2.5" y1="2" x2="3.5" y2="3"></line><line class="wire" x1="6" y1="5.5" x2="14" y2="5.5"></line><line class="wire" x1="6" y1="1.5" x2="26" y2="1.5"></line><line class="wire" x1="2" y1="5.5" x2="1" y2="5.5"></line><line class="wire" x1="2" y1="8.5" x2="9" y2="8.5"></line><line class="wire" x1="2" y1="1.5" x2="0" y2="1.5"></line><line class="wire" x1="1" y1="9.5" x2="9" y2="9.5"></line><line class="wire" x1="1" y1="5.5" x2="1" y2="5.5"></line><line class="wire" x1="0" y1="1.5" x2="-1.5" y2="3"></line><line class="wire" x1="-1.5" y1="3" x2="-1.5" y2="7"></line><line class="wire" x1="0" y1="5.5" x2="0" y2="5.5"></line><line class="wire" x1="0.5" y1="6" x2="0.5" y2="7"></line><line class="wire" x1="0.5" y1="7" x2="2" y2="8.5"></line><line class="wire" x1="-1.5" y1="7" x2="1" y2="9.5"></line><line class="wire" x1="-3.5" y1="14" x2="-3.5" y2="13"></line><line class="wire" x1="-3.5" y1="15" x2="-2" y2="16.5"></line><line class="wire" x1="-2" y1="16.5" x2="-1" y2="16.5"></line><line class="wire" x1="0" y1="16.5" x2="6" y2="16.5"></line><line class="wire" x1="-0.5" y1="17" x2="1" y2="18.5"></line><line class="wire" x1="1" y1="18.5" x2="3" y2="18.5"></line><line class="wire" x1="3" y1="20.5" x2="3" y2="20.5"></line><line class="wire" x1="3" y1="21.5" x2="3" y2="21.5"></line><line class="wire" x1="11" y1="12.5" x2="11" y2="12.5"></line><line class="wire" x1="11" y1="13.5" x2="11" y2="13.5"></line><line class="wire" x1="21" y1="13.5" x2="22.5" y2="15"></line><line class="wire" x1="20" y1="13.5" x2="17" y2="13.5"></line><line class="wire" x1="20.5" y1="13" x2="20" y2="12.5"></line><line class="wire" x1="20" y1="12.5" x2="17" y2="12.5"></line><line class="wire" x1="23" y1="15.5" x2="24" y2="15.5"></line><line class="wire" x1="24" y1="15.5" x2="25" y2="14.5"></line><line class="wire" x1="25" y1="14.5" x2="25" y2="10.5"></line><line class="wire" x1="25" y1="10.5" x2="24" y2="9.5"></line><line class="wire" x1="24" y1="9.5" x2="15" y2="9.5"></line><line class="wire" x1="22.5" y1="17" x2="21" y2="18.5"></line><line class="wire" x1="21" y1="18.5" x2="19" y2="18.5"></line><line class="wire" x1="13" y1="18.5" x2="13" y2="18.5"></line><line class="wire" x1="9" y1="18.5" x2="12" y2="18.5"></line><line class="wire" x1="11" y1="20.5" x2="12.5" y2="19"></line><line class="wire" x1="10" y1="20.5" x2="9" y2="20.5"></line><line class="wire" x1="10.5" y1="21" x2="10" y2="21.5"></line><line class="wire" x1="10" y1="21.5" x2="9" y2="21.5"></line><line class="wire" x1="23" y1="16.5" x2="25" y2="16.5"></line><line class="wire" x1="25" y1="16.5" x2="26.5" y2="15"></line><line class="wire" x1="12" y1="15.5" x2="22" y2="15.5"></line><line class="wire" x1="22" y1="16.5" x2="12" y2="16.5"></line><line class="wire" x1="26.5" y1="15" x2="26.5" y2="10"></line><line class="wire" x1="26.5" y1="10" x2="25" y2="8.5"></line><line class="wire" x1="25" y1="8.5" x2="15" y2="8.5"></line><line class="wire" x1="26" y1="3.5" x2="26.5" y2="3"></line><line class="wire" x1="26.5" y1="3" x2="26.5" y2="2"></line><line class="wire" x1="26.5" y1="2" x2="26" y2="1.5"></line><line class="wire" x1="-2" y1="15.5" x2="-3" y2="14.5"></line><line class="wire" x1="-3.5" y1="15" x2="-3.5" y2="15"></line><line class="wire" x1="-3" y1="14.5" x2="-3" y2="14.5"></line><line class="wire" x1="-3" y1="5.5" x2="-3.5" y2="6"></line><line class="wire" x1="-3.5" y1="6" x2="-3.5" y2="7"></line><line class="wire" x1="-2" y1="15.5" x2="6" y2="15.5"></line> 
        <g class="symbol " data-symbol="sw1" transform="translate(0 0)">
          <g transform="translate(15 4)">
            <path class="track" d="M0 0.5 L1 0.5"></path><path class="track" d="M0 0.5 L0.5 0"></path>
          </g>
          
        </g>
      
        <g class="symbol " data-symbol="sw2" transform="translate(0 0)">
          <g transform="translate(15 3) translate(1 0) rotate(90) translate(1 0) rotate(90)">
            <path class="track" d="M0 0.5 L1 0.5"></path><path class="track" d="M0 0.5 L0.5 0"></path>
          </g>
          
        </g>
      
        <g class="symbol " data-symbol="sw3" transform="translate(0 0)">
          <g transform="translate(14 5)">
            <path class="track" d="M0 0.5 L1 0.5"></path><path class="track" d="M0 0.5 L0.5 0"></path>
          </g>
          
        </g>
      
        <g class="symbol " data-symbol="sw4" transform="translate(0 0)">
          <g transform="translate(24 4) translate(1 0) rotate(90) translate(1 0) rotate(90)">
            <path class="track" d="M0 0.5 L1 0.5"></path><path class="track" d="M0 0.5 L0.5 0"></path>
          </g>
          
        </g>
      
        <g class="symbol " data-symbol="sw5" transform="translate(0 0)">
          <g transform="translate(25 3) translate(1 0) rotate(90) translate(1 0) rotate(90)">
            <path class="track" d="M0 0.5 L1 0.5"></path><path class="track" d="M0 0.5 L0.5 0"></path>
          </g>
          
        </g>
      
        <g class="symbol " data-symbol="n1" transform="translate(0 0)">
          <g transform="translate(24 5)">
            
          </g>
          
        </g>
      
        <g class="symbol " data-symbol="x90d1" transform="translate(0 0)">
          <g transform="translate(3 3) translate(2 0) rotate(90) translate(1 0) rotate(90)">
            <path class="track" d="M0.5 1 L1 0.5"></path><path class="track" d="M1.5 0 L1 0.5"></path><path class="track" d="M0.5 0 L1 0.5"></path><path class="track" d="M1.5 1 L1 0.5"></path>
          </g>
          
        </g>
      
        <g class="symbol " data-symbol="end1" transform="translate(0 0)">
          <g transform="translate(7 3) translate(1 0) rotate(90) translate(1 0) rotate(90)">
            
    <path class="track cut" d="M0 0.5 L0.6 0.5"></path>
    <path class="stop" d="M0.6 0.2
      V0.8"></path>
  
          </g>
          
        </g>
      
        <g class="symbol " data-symbol="sw6" transform="translate(0 0)">
          <g transform="translate(5 1) translate(1 0) rotate(90) translate(1 0) rotate(90)">
            <path class="track" d="M0 0.5 L1 0.5"></path><path class="track" d="M0 0.5 L0.5 0"></path>
          </g>
          
        </g>
      
        <g class="symbol " data-symbol="sw7" transform="translate(0 0)">
          <g transform="translate(2 5)">
            <path class="track" d="M0 0.5 L1 0.5"></path><path class="track" d="M0 0.5 L0.5 0"></path>
          </g>
          
        </g>
      
        <g class="symbol " data-symbol="sw8" transform="translate(0 0)">
          <g transform="translate(5 5) translate(1 0) scale(-1 1)">
            <path class="track" d="M0 0.5 L1 0.5"></path><path class="track" d="M0 0.5 L0.5 0"></path>
          </g>
          
        </g>
      
        <g class="symbol " data-symbol="sw9" transform="translate(0 0)">
          <g transform="translate(2 1) translate(1 0) rotate(90) translate(1 0) rotate(90) translate(1 0) scale(-1 1)">
            <path class="track" d="M0 0.5 L1 0.5"></path><path class="track" d="M0 0.5 L0.5 0"></path>
          </g>
          
        </g>
      
        <g class="symbol " data-symbol="n2" transform="translate(0 0)">
          <g transform="translate(26 1)">
            
          </g>
          
        </g>
      
        <g class="symbol " data-symbol="p1" transform="translate(0 0)">
          <g transform="translate(-1 5) translate(1 0) scale(-1 1)">
            
    <path class="track" clip-path="url(#portal-cut)" d="M0 0.5 L0.84 0.5"></path>
    <path class="portal-mouth" d="M0.811 0.23 L0.589 0.77"></path><path class="portal-mouth" d="M0.901 0.23 L0.679 0.77"></path>
  
          </g>
          
        </g>
      
        <g class="symbol " data-symbol="p2" transform="translate(0 0)">
          <g transform="translate(-3 5) translate(1 0) rotate(90) translate(1 0) rotate(90) translate(1 0) scale(-1 1)">
            
    <path class="track" clip-path="url(#portal-cut)" d="M0 0.5 L0.84 0.5"></path>
    <path class="portal-mouth" d="M0.811 0.23 L0.589 0.77"></path><path class="portal-mouth" d="M0.901 0.23 L0.679 0.77"></path>
  
          </g>
          
        </g>
      
        <g class="symbol " data-symbol="n4" transform="translate(0 0)">
          <g transform="translate(1 5)">
            
          </g>
          
        </g>
      
        <g class="symbol " data-symbol="n5" transform="translate(0 0)">
          <g transform="translate(2 8)">
            
          </g>
          
        </g>
      
        <g class="symbol " data-symbol="n6" transform="translate(0 0)">
          <g transform="translate(0 1)">
            
          </g>
          
        </g>
      
        <g class="symbol " data-symbol="n9" transform="translate(0 0)">
          <g transform="translate(1 9)">
            
          </g>
          
        </g>
      
        <g class="symbol " data-symbol="sw10" transform="translate(0 0)">
          <g transform="translate(0 5) translate(1 0) rotate(90) translate(1 0) rotate(90)">
            <path class="track" d="M0 0.5 L1 0.5"></path><path class="track" d="M0 0.5 L0.5 0"></path>
          </g>
          
        </g>
      
        <g class="symbol " data-symbol="n10" transform="translate(0 0)">
          <g transform="translate(-2 3) translate(1 0) rotate(90)">
            
          </g>
          
        </g>
      
        <g class="symbol " data-symbol="n11" transform="translate(0 0)">
          <g transform="translate(-2 7) translate(1 0) rotate(90)">
            
          </g>
          
        </g>
      
        <g class="symbol " data-symbol="n12" transform="translate(0 0)">
          <g transform="translate(0 7) translate(1 0) rotate(90)">
            
          </g>
          
        </g>
      
        <g class="symbol " data-symbol="sw11" transform="translate(0 0)">
          <g transform="translate(-4 14) translate(1 0) rotate(90)">
            <path class="track" d="M0 0.5 L1 0.5"></path><path class="track" d="M0 0.5 L0.5 0"></path>
          </g>
          
        </g>
      
        <g class="symbol " data-symbol="sw12" transform="translate(0 0)">
          <g transform="translate(-1 16) translate(1 0) rotate(90) translate(1 0) rotate(90) translate(1 0) scale(-1 1)">
            <path class="track" d="M0 0.5 L1 0.5"></path><path class="track" d="M0 0.5 L0.5 0"></path>
          </g>
          
        </g>
      
        <g class="symbol " data-symbol="n14" transform="translate(0 0)">
          <g transform="translate(-4 15) translate(1 0) rotate(90)">
            
          </g>
          
        </g>
      
        <g class="symbol " data-symbol="n15" transform="translate(0 0)">
          <g transform="translate(-2 16)">
            
          </g>
          
        </g>
      
        <g class="symbol " data-symbol="n16" transform="translate(0 0)">
          <g transform="translate(1 18)">
            
          </g>
          
        </g>
      
        <g class="symbol " data-symbol="e1" transform="translate(0 0)">
          <g transform="translate(2 20) translate(1 0) rotate(90) translate(1 0) rotate(90)">
            
    <path class="track cut" d="M0 0.5 L0.6 0.5"></path>
    <path class="stop" d="M0.6 0.2
      V0.8"></path>
  
          </g>
          
        </g>
      
        <g class="symbol " data-symbol="e2" transform="translate(0 0)">
          <g transform="translate(2 21) translate(1 0) rotate(90) translate(1 0) rotate(90)">
            
    <path class="track cut" d="M0 0.5 L0.6 0.5"></path>
    <path class="stop" d="M0.6 0.2
      V0.8"></path>
  
          </g>
          
        </g>
      
        <g class="symbol " data-symbol="e3" transform="translate(0 0)">
          <g transform="translate(10 12) translate(1 0) rotate(90) translate(1 0) rotate(90)">
            
    <path class="track cut" d="M0 0.5 L0.6 0.5"></path>
    <path class="stop" d="M0.6 0.2
      V0.8"></path>
  
          </g>
          
        </g>
      
        <g class="symbol " data-symbol="e4" transform="translate(0 0)">
          <g transform="translate(10 13) translate(1 0) rotate(90) translate(1 0) rotate(90)">
            
    <path class="track cut" d="M0 0.5 L0.6 0.5"></path>
    <path class="stop" d="M0.6 0.2
      V0.8"></path>
  
          </g>
          
        </g>
      
        <g class="symbol " data-symbol="sw13" transform="translate(0 0)">
          <g transform="translate(22 16) translate(1 0) rotate(90) translate(1 0) rotate(90)">
            <path class="track" d="M0 0.5 L1 0.5"></path><path class="track" d="M0 0.5 L0.5 0"></path>
          </g>
          
        </g>
      
        <g class="symbol " data-symbol="sw14" transform="translate(0 0)">
          <g transform="translate(22 15) translate(1 0) scale(-1 1)">
            <path class="track" d="M0 0.5 L1 0.5"></path><path class="track" d="M0 0.5 L0.5 0"></path>
          </g>
          
        </g>
      
        <g class="symbol " data-symbol="sw15" transform="translate(0 0)">
          <g transform="translate(20 13) translate(1 0) scale(-1 1)">
            <path class="track" d="M0 0.5 L1 0.5"></path><path class="track" d="M0 0.5 L0.5 0"></path>
          </g>
          
        </g>
      
        <g class="symbol " data-symbol="n19" transform="translate(0 0)">
          <g transform="translate(20 12)">
            
          </g>
          
        </g>
      
        <g class="symbol " data-symbol="n20" transform="translate(0 0)">
          <g transform="translate(24 15)">
            
          </g>
          
        </g>
      
        <g class="symbol " data-symbol="n21" transform="translate(0 0)">
          <g transform="translate(25 14)">
            
          </g>
          
        </g>
      
        <g class="symbol " data-symbol="n22" transform="translate(0 0)">
          <g transform="translate(25 10)">
            
          </g>
          
        </g>
      
        <g class="symbol " data-symbol="n23" transform="translate(0 0)">
          <g transform="translate(24 9)">
            
          </g>
          
        </g>
      
        <g class="symbol " data-symbol="n26" transform="translate(0 0)">
          <g transform="translate(25 8)">
            
          </g>
          
        </g>
      
        <g class="symbol " data-symbol="n27" transform="translate(0 0)">
          <g transform="translate(26 10) translate(1 0) rotate(90)">
            
          </g>
          
        </g>
      
        <g class="symbol " data-symbol="n29" transform="translate(0 0)">
          <g transform="translate(21 18)">
            
          </g>
          
        </g>
      
        <g class="symbol " data-symbol="sw16" transform="translate(0 0)">
          <g transform="translate(12 18) translate(1 0) rotate(90) translate(1 0) rotate(90)">
            <path class="track" d="M0 0.5 L1 0.5"></path><path class="track" d="M0 0.5 L0.5 0"></path>
          </g>
          
        </g>
      
        <g class="symbol " data-symbol="sw17" transform="translate(0 0)">
          <g transform="translate(10 20) translate(1 0) rotate(90) translate(1 0) rotate(90)">
            <path class="track" d="M0 0.5 L1 0.5"></path><path class="track" d="M0 0.5 L0.5 0"></path>
          </g>
          
        </g>
      
        <g class="symbol " data-symbol="n30" transform="translate(0 0)">
          <g transform="translate(10 21)">
            
          </g>
          
        </g>
      
        <g class="symbol " data-symbol="n31" transform="translate(0 0)">
          <g transform="translate(25 16)">
            
          </g>
          
        </g>
      
        <g class="symbol " data-symbol="n32" transform="translate(0 0)">
          <g transform="translate(26 15) translate(1 0) rotate(90)">
            
          </g>
          
        </g>
      
        <g class="symbol " data-symbol="n33" transform="translate(0 0)">
          <g transform="translate(26 3) translate(1 0) rotate(90)">
            
          </g>
          
        </g>
      
        <g class="symbol " data-symbol="n34" transform="translate(0 0)">
          <g transform="translate(26 2) translate(1 0) rotate(90)">
            
          </g>
          
        </g>
      
        <g class="symbol " data-symbol="n35" transform="translate(0 0)">
          <g transform="translate(-2 15)">
            
          </g>
          
        </g>
      
        <g class="symbol " data-symbol="n36" transform="translate(0 0)">
          <g transform="translate(-3 14)">
            
          </g>
          
        </g>
      
        <g class="symbol " data-symbol="n37" transform="translate(0 0)">
          <g transform="translate(-4 6) translate(1 0) rotate(90)">
            
          </g>
          
        </g>
      
        <g class="symbol " data-symbol="CE1" transform="translate(0 0)">
          <g transform="translate(9 8) translate(6 0) rotate(90) translate(1 0) rotate(90)">
            
    <path class="track" d="M0 0.5 L1 0.5"></path>
    <path class="track" d="M5 0.5 L6 0.5"></path>
    <rect class="block-body" x="1" y="0.09999999999999998" width="4" height="0.8"></rect>
    <g class="signal end-A">
    <path class="plaque" d="M0.235 0.755 L0.325 0.665
      H0.675 L0.765 0.755 V0.795 L0.675 0.885
      H0.325 L0.235 0.795 Z"></path>
    <circle class="lamp clear" cx="0.61" cy="0.775" r="0.055"></circle>
    <circle class="lamp danger" cx="0.39" cy="0.775" r="0.055"></circle>
  </g>
    <g class="signal end-B">
    <path class="plaque" d="M5.235 0.205 L5.325 0.115
      H5.675 L5.765 0.205 V0.245 L5.675 0.335
      H5.325 L5.235 0.245 Z"></path>
    <circle class="lamp clear" cx="5.39" cy="0.225" r="0.055"></circle>
    <circle class="lamp danger" cx="5.61" cy="0.225" r="0.055"></circle>
  </g>
    <path class="mark" d="M1.088 0.72
      h0.225 M1.2 0.607
      v0.225"></path>
  
          </g>
          <text class="name" x="12" y="8.5">CE1</text>
        </g>
      
        <g class="symbol " data-symbol="CE2" transform="translate(0 0)">
          <g transform="translate(9 9) translate(6 0) rotate(90) translate(1 0) rotate(90)">
            
    <path class="track" d="M0 0.5 L1 0.5"></path>
    <path class="track" d="M5 0.5 L6 0.5"></path>
    <rect class="block-body" x="1" y="0.09999999999999998" width="4" height="0.8"></rect>
    <g class="signal end-A">
    <path class="plaque" d="M0.235 0.755 L0.325 0.665
      H0.675 L0.765 0.755 V0.795 L0.675 0.885
      H0.325 L0.235 0.795 Z"></path>
    <circle class="lamp clear" cx="0.61" cy="0.775" r="0.055"></circle>
    <circle class="lamp danger" cx="0.39" cy="0.775" r="0.055"></circle>
  </g>
    <g class="signal end-B">
    <path class="plaque" d="M5.235 0.205 L5.325 0.115
      H5.675 L5.765 0.205 V0.245 L5.675 0.335
      H5.325 L5.235 0.245 Z"></path>
    <circle class="lamp clear" cx="5.39" cy="0.225" r="0.055"></circle>
    <circle class="lamp danger" cx="5.61" cy="0.225" r="0.055"></circle>
  </g>
    <path class="mark" d="M1.088 0.72
      h0.225 M1.2 0.607
      v0.225"></path>
  
          </g>
          <text class="name" x="12" y="9.5">CE2</text>
        </g>
      
        <g class="symbol " data-symbol="C4" transform="translate(0 0)">
          <g transform="translate(11 12) translate(6 0) rotate(90) translate(1 0) rotate(90)">
            
    <path class="track" d="M0 0.5 L1 0.5"></path>
    <path class="track" d="M5 0.5 L6 0.5"></path>
    <rect class="block-body" x="1" y="0.09999999999999998" width="4" height="0.8"></rect>
    <g class="signal end-A">
    <path class="plaque" d="M0.235 0.755 L0.325 0.665
      H0.675 L0.765 0.755 V0.795 L0.675 0.885
      H0.325 L0.235 0.795 Z"></path>
    <circle class="lamp clear" cx="0.61" cy="0.775" r="0.055"></circle>
    <circle class="lamp danger" cx="0.39" cy="0.775" r="0.055"></circle>
  </g>
    <g class="signal end-B">
    <path class="plaque" d="M5.235 0.205 L5.325 0.115
      H5.675 L5.765 0.205 V0.245 L5.675 0.335
      H5.325 L5.235 0.245 Z"></path>
    <circle class="lamp clear" cx="5.39" cy="0.225" r="0.055"></circle>
    <circle class="lamp danger" cx="5.61" cy="0.225" r="0.055"></circle>
  </g>
    <path class="mark" d="M1.088 0.72
      h0.225 M1.2 0.607
      v0.225"></path>
  
          </g>
          <text class="name" x="14" y="12.5">C4</text>
        </g>
      
        <g class="symbol " data-symbol="C5" transform="translate(0 0)">
          <g transform="translate(11 13) translate(6 0) rotate(90) translate(1 0) rotate(90)">
            
    <path class="track" d="M0 0.5 L1 0.5"></path>
    <path class="track" d="M5 0.5 L6 0.5"></path>
    <rect class="block-body" x="1" y="0.09999999999999998" width="4" height="0.8"></rect>
    <g class="signal end-A">
    <path class="plaque" d="M0.235 0.755 L0.325 0.665
      H0.675 L0.765 0.755 V0.795 L0.675 0.885
      H0.325 L0.235 0.795 Z"></path>
    <circle class="lamp clear" cx="0.61" cy="0.775" r="0.055"></circle>
    <circle class="lamp danger" cx="0.39" cy="0.775" r="0.055"></circle>
  </g>
    <g class="signal end-B">
    <path class="plaque" d="M5.235 0.205 L5.325 0.115
      H5.675 L5.765 0.205 V0.245 L5.675 0.335
      H5.325 L5.235 0.245 Z"></path>
    <circle class="lamp clear" cx="5.39" cy="0.225" r="0.055"></circle>
    <circle class="lamp danger" cx="5.61" cy="0.225" r="0.055"></circle>
  </g>
    <path class="mark" d="M1.088 0.72
      h0.225 M1.2 0.607
      v0.225"></path>
  
          </g>
          <text class="name" x="14" y="13.5">C5</text>
        </g>
      
        <g class="symbol " data-symbol="C1" transform="translate(0 0)">
          <g transform="translate(6 15) translate(6 0) rotate(90) translate(1 0) rotate(90)">
            
    <path class="track" d="M0 0.5 L1 0.5"></path>
    <path class="track" d="M5 0.5 L6 0.5"></path>
    <rect class="block-body" x="1" y="0.09999999999999998" width="4" height="0.8"></rect>
    <g class="signal end-A">
    <path class="plaque" d="M0.235 0.755 L0.325 0.665
      H0.675 L0.765 0.755 V0.795 L0.675 0.885
      H0.325 L0.235 0.795 Z"></path>
    <circle class="lamp clear" cx="0.61" cy="0.775" r="0.055"></circle>
    <circle class="lamp danger" cx="0.39" cy="0.775" r="0.055"></circle>
  </g>
    <g class="signal end-B">
    <path class="plaque" d="M5.235 0.205 L5.325 0.115
      H5.675 L5.765 0.205 V0.245 L5.675 0.335
      H5.325 L5.235 0.245 Z"></path>
    <circle class="lamp clear" cx="5.39" cy="0.225" r="0.055"></circle>
    <circle class="lamp danger" cx="5.61" cy="0.225" r="0.055"></circle>
  </g>
    <path class="mark" d="M1.088 0.72
      h0.225 M1.2 0.607
      v0.225"></path>
  
          </g>
          <text class="name" x="9" y="15.5">C1</text>
        </g>
      
        <g class="symbol " data-symbol="A1" transform="translate(0 0)">
          <g transform="translate(17 3)">
            
    <path class="track" d="M0 0.5 L1 0.5"></path>
    <path class="track" d="M5 0.5 L6 0.5"></path>
    <rect class="block-body" x="1" y="0.09999999999999998" width="4" height="0.8"></rect>
    <g class="signal end-A">
    <path class="plaque" d="M0.235 0.755 L0.325 0.665
      H0.675 L0.765 0.755 V0.795 L0.675 0.885
      H0.325 L0.235 0.795 Z"></path>
    <circle class="lamp clear" cx="0.61" cy="0.775" r="0.055"></circle>
    <circle class="lamp danger" cx="0.39" cy="0.775" r="0.055"></circle>
  </g>
    <g class="signal end-B">
    <path class="plaque" d="M5.235 0.205 L5.325 0.115
      H5.675 L5.765 0.205 V0.245 L5.675 0.335
      H5.325 L5.235 0.245 Z"></path>
    <circle class="lamp clear" cx="5.39" cy="0.225" r="0.055"></circle>
    <circle class="lamp danger" cx="5.61" cy="0.225" r="0.055"></circle>
  </g>
    <path class="mark" d="M1.088 0.72
      h0.225 M1.2 0.607
      v0.225"></path>
  
          </g>
          <text class="name" x="20" y="3.5">A1</text>
        </g>
      
        <g class="symbol " data-symbol="A2" transform="translate(0 0)">
          <g transform="translate(17 4)">
            
    <path class="track" d="M0 0.5 L1 0.5"></path>
    <path class="track" d="M5 0.5 L6 0.5"></path>
    <rect class="block-body" x="1" y="0.09999999999999998" width="4" height="0.8"></rect>
    <g class="signal end-A">
    <path class="plaque" d="M0.235 0.755 L0.325 0.665
      H0.675 L0.765 0.755 V0.795 L0.675 0.885
      H0.325 L0.235 0.795 Z"></path>
    <circle class="lamp clear" cx="0.61" cy="0.775" r="0.055"></circle>
    <circle class="lamp danger" cx="0.39" cy="0.775" r="0.055"></circle>
  </g>
    <g class="signal end-B">
    <path class="plaque" d="M5.235 0.205 L5.325 0.115
      H5.675 L5.765 0.205 V0.245 L5.675 0.335
      H5.325 L5.235 0.245 Z"></path>
    <circle class="lamp clear" cx="5.39" cy="0.225" r="0.055"></circle>
    <circle class="lamp danger" cx="5.61" cy="0.225" r="0.055"></circle>
  </g>
    <path class="mark" d="M1.088 0.72
      h0.225 M1.2 0.607
      v0.225"></path>
  
          </g>
          <text class="name" x="20" y="4.5">A2</text>
        </g>
      
        <g class="symbol " data-symbol="A3" transform="translate(0 0)">
          <g transform="translate(17 5)">
            
    <path class="track" d="M0 0.5 L1 0.5"></path>
    <path class="track" d="M5 0.5 L6 0.5"></path>
    <rect class="block-body" x="1" y="0.09999999999999998" width="4" height="0.8"></rect>
    <g class="signal end-A">
    <path class="plaque" d="M0.235 0.755 L0.325 0.665
      H0.675 L0.765 0.755 V0.795 L0.675 0.885
      H0.325 L0.235 0.795 Z"></path>
    <circle class="lamp clear" cx="0.61" cy="0.775" r="0.055"></circle>
    <circle class="lamp danger" cx="0.39" cy="0.775" r="0.055"></circle>
  </g>
    <g class="signal end-B">
    <path class="plaque" d="M5.235 0.205 L5.325 0.115
      H5.675 L5.765 0.205 V0.245 L5.675 0.335
      H5.325 L5.235 0.245 Z"></path>
    <circle class="lamp clear" cx="5.39" cy="0.225" r="0.055"></circle>
    <circle class="lamp danger" cx="5.61" cy="0.225" r="0.055"></circle>
  </g>
    <path class="mark" d="M1.088 0.72
      h0.225 M1.2 0.607
      v0.225"></path>
  
          </g>
          <text class="name" x="20" y="5.5">A3</text>
        </g>
      
        <g class="symbol " data-symbol="A4" transform="translate(0 0)">
          <g transform="translate(8 3)">
            
    <path class="track" d="M0 0.5 L1 0.5"></path>
    <path class="track" d="M5 0.5 L6 0.5"></path>
    <rect class="block-body" x="1" y="0.09999999999999998" width="4" height="0.8"></rect>
    <g class="signal end-A">
    <path class="plaque" d="M0.235 0.755 L0.325 0.665
      H0.675 L0.765 0.755 V0.795 L0.675 0.885
      H0.325 L0.235 0.795 Z"></path>
    <circle class="lamp clear" cx="0.61" cy="0.775" r="0.055"></circle>
    <circle class="lamp danger" cx="0.39" cy="0.775" r="0.055"></circle>
  </g>
    <g class="signal end-B">
    <path class="plaque" d="M5.235 0.205 L5.325 0.115
      H5.675 L5.765 0.205 V0.245 L5.675 0.335
      H5.325 L5.235 0.245 Z"></path>
    <circle class="lamp clear" cx="5.39" cy="0.225" r="0.055"></circle>
    <circle class="lamp danger" cx="5.61" cy="0.225" r="0.055"></circle>
  </g>
    <path class="mark" d="M1.088 0.72
      h0.225 M1.2 0.607
      v0.225"></path>
  
          </g>
          <text class="name" x="11" y="3.5">A4</text>
        </g>
      
        <g class="symbol " data-symbol="CW" transform="translate(0 0)">
          <g transform="translate(-4 7) translate(1 0) rotate(90) translate(6 0) rotate(90) translate(1 0) rotate(90) translate(6 0) scale(-1 1)">
            
    <path class="track" d="M0 0.5 L1 0.5"></path>
    <path class="track" d="M5 0.5 L6 0.5"></path>
    <rect class="block-body" x="1" y="0.09999999999999998" width="4" height="0.8"></rect>
    <g class="signal end-A">
    <path class="plaque" d="M0.235 0.755 L0.325 0.665
      H0.675 L0.765 0.755 V0.795 L0.675 0.885
      H0.325 L0.235 0.795 Z"></path>
    <circle class="lamp clear" cx="0.61" cy="0.775" r="0.055"></circle>
    <circle class="lamp danger" cx="0.39" cy="0.775" r="0.055"></circle>
  </g>
    <g class="signal end-B">
    <path class="plaque" d="M5.235 0.205 L5.325 0.115
      H5.675 L5.765 0.205 V0.245 L5.675 0.335
      H5.325 L5.235 0.245 Z"></path>
    <circle class="lamp clear" cx="5.39" cy="0.225" r="0.055"></circle>
    <circle class="lamp danger" cx="5.61" cy="0.225" r="0.055"></circle>
  </g>
    <path class="mark" d="M1.088 0.72
      h0.225 M1.2 0.607
      v0.225"></path>
  
          </g>
          <text class="name" x="-3.5" y="10">CW</text>
        </g>
      
        <g class="symbol " data-symbol="C2" transform="translate(0 0)">
          <g transform="translate(6 16) translate(6 0) rotate(90) translate(1 0) rotate(90)">
            
    <path class="track" d="M0 0.5 L1 0.5"></path>
    <path class="track" d="M5 0.5 L6 0.5"></path>
    <rect class="block-body" x="1" y="0.09999999999999998" width="4" height="0.8"></rect>
    <g class="signal end-A">
    <path class="plaque" d="M0.235 0.755 L0.325 0.665
      H0.675 L0.765 0.755 V0.795 L0.675 0.885
      H0.325 L0.235 0.795 Z"></path>
    <circle class="lamp clear" cx="0.61" cy="0.775" r="0.055"></circle>
    <circle class="lamp danger" cx="0.39" cy="0.775" r="0.055"></circle>
  </g>
    <g class="signal end-B">
    <path class="plaque" d="M5.235 0.205 L5.325 0.115
      H5.675 L5.765 0.205 V0.245 L5.675 0.335
      H5.325 L5.235 0.245 Z"></path>
    <circle class="lamp clear" cx="5.39" cy="0.225" r="0.055"></circle>
    <circle class="lamp danger" cx="5.61" cy="0.225" r="0.055"></circle>
  </g>
    <path class="mark" d="M1.088 0.72
      h0.225 M1.2 0.607
      v0.225"></path>
  
          </g>
          <text class="name" x="9" y="16.5">C2</text>
        </g>
      
        <g class="symbol " data-symbol="C3b" transform="translate(0 0)">
          <g transform="translate(13 18) translate(6 0) rotate(90) translate(1 0) rotate(90)">
            
    <path class="track" d="M0 0.5 L1 0.5"></path>
    <path class="track" d="M5 0.5 L6 0.5"></path>
    <rect class="block-body" x="1" y="0.09999999999999998" width="4" height="0.8"></rect>
    <g class="signal end-A">
    <path class="plaque" d="M0.235 0.755 L0.325 0.665
      H0.675 L0.765 0.755 V0.795 L0.675 0.885
      H0.325 L0.235 0.795 Z"></path>
    <circle class="lamp clear" cx="0.61" cy="0.775" r="0.055"></circle>
    <circle class="lamp danger" cx="0.39" cy="0.775" r="0.055"></circle>
  </g>
    <g class="signal end-B">
    <path class="plaque" d="M5.235 0.205 L5.325 0.115
      H5.675 L5.765 0.205 V0.245 L5.675 0.335
      H5.325 L5.235 0.245 Z"></path>
    <circle class="lamp clear" cx="5.39" cy="0.225" r="0.055"></circle>
    <circle class="lamp danger" cx="5.61" cy="0.225" r="0.055"></circle>
  </g>
    <path class="mark" d="M1.088 0.72
      h0.225 M1.2 0.607
      v0.225"></path>
  
          </g>
          <text class="name" x="16" y="18.5">C3b</text>
        </g>
      
        <g class="symbol " data-symbol="C3a" transform="translate(0 0)">
          <g transform="translate(3 18) translate(6 0) rotate(90) translate(1 0) rotate(90)">
            
    <path class="track" d="M0 0.5 L1 0.5"></path>
    <path class="track" d="M5 0.5 L6 0.5"></path>
    <rect class="block-body" x="1" y="0.09999999999999998" width="4" height="0.8"></rect>
    <g class="signal end-A">
    <path class="plaque" d="M0.235 0.755 L0.325 0.665
      H0.675 L0.765 0.755 V0.795 L0.675 0.885
      H0.325 L0.235 0.795 Z"></path>
    <circle class="lamp clear" cx="0.61" cy="0.775" r="0.055"></circle>
    <circle class="lamp danger" cx="0.39" cy="0.775" r="0.055"></circle>
  </g>
    <g class="signal end-B">
    <path class="plaque" d="M5.235 0.205 L5.325 0.115
      H5.675 L5.765 0.205 V0.245 L5.675 0.335
      H5.325 L5.235 0.245 Z"></path>
    <circle class="lamp clear" cx="5.39" cy="0.225" r="0.055"></circle>
    <circle class="lamp danger" cx="5.61" cy="0.225" r="0.055"></circle>
  </g>
    <path class="mark" d="M1.088 0.72
      h0.225 M1.2 0.607
      v0.225"></path>
  
          </g>
          <text class="name" x="6" y="18.5">C3a</text>
        </g>
      
        <g class="symbol " data-symbol="C6" transform="translate(0 0)">
          <g transform="translate(3 20) translate(6 0) rotate(90) translate(1 0) rotate(90)">
            
    <path class="track" d="M0 0.5 L1 0.5"></path>
    <path class="track" d="M5 0.5 L6 0.5"></path>
    <rect class="block-body" x="1" y="0.09999999999999998" width="4" height="0.8"></rect>
    <g class="signal end-A">
    <path class="plaque" d="M0.235 0.755 L0.325 0.665
      H0.675 L0.765 0.755 V0.795 L0.675 0.885
      H0.325 L0.235 0.795 Z"></path>
    <circle class="lamp clear" cx="0.61" cy="0.775" r="0.055"></circle>
    <circle class="lamp danger" cx="0.39" cy="0.775" r="0.055"></circle>
  </g>
    <g class="signal end-B">
    <path class="plaque" d="M5.235 0.205 L5.325 0.115
      H5.675 L5.765 0.205 V0.245 L5.675 0.335
      H5.325 L5.235 0.245 Z"></path>
    <circle class="lamp clear" cx="5.39" cy="0.225" r="0.055"></circle>
    <circle class="lamp danger" cx="5.61" cy="0.225" r="0.055"></circle>
  </g>
    <path class="mark" d="M1.088 0.72
      h0.225 M1.2 0.607
      v0.225"></path>
  
          </g>
          <text class="name" x="6" y="20.5">C6</text>
        </g>
      
        <g class="symbol " data-symbol="C7" transform="translate(0 0)">
          <g transform="translate(3 21) translate(6 0) rotate(90) translate(1 0) rotate(90)">
            
    <path class="track" d="M0 0.5 L1 0.5"></path>
    <path class="track" d="M5 0.5 L6 0.5"></path>
    <rect class="block-body" x="1" y="0.09999999999999998" width="4" height="0.8"></rect>
    <g class="signal end-A">
    <path class="plaque" d="M0.235 0.755 L0.325 0.665
      H0.675 L0.765 0.755 V0.795 L0.675 0.885
      H0.325 L0.235 0.795 Z"></path>
    <circle class="lamp clear" cx="0.61" cy="0.775" r="0.055"></circle>
    <circle class="lamp danger" cx="0.39" cy="0.775" r="0.055"></circle>
  </g>
    <g class="signal end-B">
    <path class="plaque" d="M5.235 0.205 L5.325 0.115
      H5.675 L5.765 0.205 V0.245 L5.675 0.335
      H5.325 L5.235 0.245 Z"></path>
    <circle class="lamp clear" cx="5.39" cy="0.225" r="0.055"></circle>
    <circle class="lamp danger" cx="5.61" cy="0.225" r="0.055"></circle>
  </g>
    <path class="mark" d="M1.088 0.72
      h0.225 M1.2 0.607
      v0.225"></path>
  
          </g>
          <text class="name" x="6" y="21.5">C7</text>
        </g>
       <circle class="pin  " data-pin="sw1.toe" cx="15" cy="4.5" r="0.075"></circle><circle class="pin  " data-pin="sw1.straight" cx="16" cy="4.5" r="0.075"></circle><circle class="pin  " data-pin="sw1.diverging" cx="15.5" cy="4" r="0.075"></circle><circle class="pin  " data-pin="sw2.toe" cx="16" cy="3.5" r="0.075"></circle><circle class="pin  " data-pin="sw2.straight" cx="15" cy="3.5" r="0.075"></circle><circle class="pin  " data-pin="sw2.diverging" cx="15.5" cy="4" r="0.075"></circle><circle class="pin  " data-pin="sw3.toe" cx="14" cy="5.5" r="0.075"></circle><circle class="pin  " data-pin="sw3.straight" cx="15" cy="5.5" r="0.075"></circle><circle class="pin  " data-pin="sw3.diverging" cx="14.5" cy="5" r="0.075"></circle><circle class="pin  " data-pin="sw4.toe" cx="25" cy="4.5" r="0.075"></circle><circle class="pin  " data-pin="sw4.straight" cx="24" cy="4.5" r="0.075"></circle><circle class="pin  " data-pin="sw4.diverging" cx="24.5" cy="5" r="0.075"></circle><circle class="pin  " data-pin="sw5.toe" cx="26" cy="3.5" r="0.075"></circle><circle class="pin  " data-pin="sw5.straight" cx="25" cy="3.5" r="0.075"></circle><circle class="pin  " data-pin="sw5.diverging" cx="25.5" cy="4" r="0.075"></circle><circle class="pin  " data-pin="n1.P" cx="24" cy="5.5" r="0.075"></circle><circle class="pin  " data-pin="x90d1.a1" cx="4.5" cy="3" r="0.075"></circle><circle class="pin  " data-pin="x90d1.a2" cx="3.5" cy="4" r="0.075"></circle><circle class="pin  " data-pin="x90d1.b1" cx="4.5" cy="4" r="0.075"></circle><circle class="pin  " data-pin="x90d1.b2" cx="3.5" cy="3" r="0.075"></circle><circle class="pin  " data-pin="end1.P" cx="8" cy="3.5" r="0.075"></circle><circle class="pin  " data-pin="sw6.toe" cx="6" cy="1.5" r="0.075"></circle><circle class="pin  " data-pin="sw6.straight" cx="5" cy="1.5" r="0.075"></circle><circle class="pin  " data-pin="sw6.diverging" cx="5.5" cy="2" r="0.075"></circle><circle class="pin  " data-pin="sw7.toe" cx="2" cy="5.5" r="0.075"></circle><circle class="pin  " data-pin="sw7.straight" cx="3" cy="5.5" r="0.075"></circle><circle class="pin  " data-pin="sw7.diverging" cx="2.5" cy="5" r="0.075"></circle><circle class="pin  " data-pin="sw8.toe" cx="6" cy="5.5" r="0.075"></circle><circle class="pin  " data-pin="sw8.straight" cx="5" cy="5.5" r="0.075"></circle><circle class="pin  " data-pin="sw8.diverging" cx="5.5" cy="5" r="0.075"></circle><circle class="pin  " data-pin="sw9.toe" cx="2" cy="1.5" r="0.075"></circle><circle class="pin  " data-pin="sw9.straight" cx="3" cy="1.5" r="0.075"></circle><circle class="pin  " data-pin="sw9.diverging" cx="2.5" cy="2" r="0.075"></circle><circle class="pin  " data-pin="n2.P" cx="26" cy="1.5" r="0.075"></circle><circle class="pin  " data-pin="p1.P" cx="0" cy="5.5" r="0.075"></circle><circle class="pin  " data-pin="p2.P" cx="-3" cy="5.5" r="0.075"></circle><circle class="pin  " data-pin="n4.P" cx="1" cy="5.5" r="0.075"></circle><circle class="pin  " data-pin="n5.P" cx="2" cy="8.5" r="0.075"></circle><circle class="pin  " data-pin="n6.P" cx="0" cy="1.5" r="0.075"></circle><circle class="pin  " data-pin="n9.P" cx="1" cy="9.5" r="0.075"></circle><circle class="pin  " data-pin="sw10.toe" cx="1" cy="5.5" r="0.075"></circle><circle class="pin  " data-pin="sw10.straight" cx="0" cy="5.5" r="0.075"></circle><circle class="pin  " data-pin="sw10.diverging" cx="0.5" cy="6" r="0.075"></circle><circle class="pin  " data-pin="n10.P" cx="-1.5" cy="3" r="0.075"></circle><circle class="pin  " data-pin="n11.P" cx="-1.5" cy="7" r="0.075"></circle><circle class="pin  " data-pin="n12.P" cx="0.5" cy="7" r="0.075"></circle><circle class="pin  " data-pin="sw11.toe" cx="-3.5" cy="14" r="0.075"></circle><circle class="pin  " data-pin="sw11.straight" cx="-3.5" cy="15" r="0.075"></circle><circle class="pin  " data-pin="sw11.diverging" cx="-3" cy="14.5" r="0.075"></circle><circle class="pin  " data-pin="sw12.toe" cx="-1" cy="16.5" r="0.075"></circle><circle class="pin  " data-pin="sw12.straight" cx="0" cy="16.5" r="0.075"></circle><circle class="pin  " data-pin="sw12.diverging" cx="-0.5" cy="17" r="0.075"></circle><circle class="pin  " data-pin="n14.P" cx="-3.5" cy="15" r="0.075"></circle><circle class="pin  " data-pin="n15.P" cx="-2" cy="16.5" r="0.075"></circle><circle class="pin  " data-pin="n16.P" cx="1" cy="18.5" r="0.075"></circle><circle class="pin  " data-pin="e1.P" cx="3" cy="20.5" r="0.075"></circle><circle class="pin  " data-pin="e2.P" cx="3" cy="21.5" r="0.075"></circle><circle class="pin  " data-pin="e3.P" cx="11" cy="12.5" r="0.075"></circle><circle class="pin  " data-pin="e4.P" cx="11" cy="13.5" r="0.075"></circle><circle class="pin  " data-pin="sw13.toe" cx="23" cy="16.5" r="0.075"></circle><circle class="pin  " data-pin="sw13.straight" cx="22" cy="16.5" r="0.075"></circle><circle class="pin  " data-pin="sw13.diverging" cx="22.5" cy="17" r="0.075"></circle><circle class="pin  " data-pin="sw14.toe" cx="23" cy="15.5" r="0.075"></circle><circle class="pin  " data-pin="sw14.straight" cx="22" cy="15.5" r="0.075"></circle><circle class="pin  " data-pin="sw14.diverging" cx="22.5" cy="15" r="0.075"></circle><circle class="pin  " data-pin="sw15.toe" cx="21" cy="13.5" r="0.075"></circle><circle class="pin  " data-pin="sw15.straight" cx="20" cy="13.5" r="0.075"></circle><circle class="pin  " data-pin="sw15.diverging" cx="20.5" cy="13" r="0.075"></circle><circle class="pin  " data-pin="n19.P" cx="20" cy="12.5" r="0.075"></circle><circle class="pin  " data-pin="n20.P" cx="24" cy="15.5" r="0.075"></circle><circle class="pin  " data-pin="n21.P" cx="25" cy="14.5" r="0.075"></circle><circle class="pin  " data-pin="n22.P" cx="25" cy="10.5" r="0.075"></circle><circle class="pin  " data-pin="n23.P" cx="24" cy="9.5" r="0.075"></circle><circle class="pin  " data-pin="n26.P" cx="25" cy="8.5" r="0.075"></circle><circle class="pin  " data-pin="n27.P" cx="26.5" cy="10" r="0.075"></circle><circle class="pin  " data-pin="n29.P" cx="21" cy="18.5" r="0.075"></circle><circle class="pin  " data-pin="sw16.toe" cx="13" cy="18.5" r="0.075"></circle><circle class="pin  " data-pin="sw16.straight" cx="12" cy="18.5" r="0.075"></circle><circle class="pin  " data-pin="sw16.diverging" cx="12.5" cy="19" r="0.075"></circle><circle class="pin  " data-pin="sw17.toe" cx="11" cy="20.5" r="0.075"></circle><circle class="pin  " data-pin="sw17.straight" cx="10" cy="20.5" r="0.075"></circle><circle class="pin  " data-pin="sw17.diverging" cx="10.5" cy="21" r="0.075"></circle><circle class="pin  " data-pin="n30.P" cx="10" cy="21.5" r="0.075"></circle><circle class="pin  " data-pin="n31.P" cx="25" cy="16.5" r="0.075"></circle><circle class="pin  " data-pin="n32.P" cx="26.5" cy="15" r="0.075"></circle><circle class="pin  " data-pin="n33.P" cx="26.5" cy="3" r="0.075"></circle><circle class="pin  " data-pin="n34.P" cx="26.5" cy="2" r="0.075"></circle><circle class="pin  " data-pin="n35.P" cx="-2" cy="15.5" r="0.075"></circle><circle class="pin  " data-pin="n36.P" cx="-3" cy="14.5" r="0.075"></circle><circle class="pin  " data-pin="n37.P" cx="-3.5" cy="6" r="0.075"></circle><circle class="pin  " data-pin="CE1.A" cx="15" cy="8.5" r="0.075"></circle><circle class="pin  " data-pin="CE1.B" cx="9" cy="8.5" r="0.075"></circle><circle class="pin  " data-pin="CE2.A" cx="15" cy="9.5" r="0.075"></circle><circle class="pin  " data-pin="CE2.B" cx="9" cy="9.5" r="0.075"></circle><circle class="pin  " data-pin="C4.A" cx="17" cy="12.5" r="0.075"></circle><circle class="pin  " data-pin="C4.B" cx="11" cy="12.5" r="0.075"></circle><circle class="pin  " data-pin="C5.A" cx="17" cy="13.5" r="0.075"></circle><circle class="pin  " data-pin="C5.B" cx="11" cy="13.5" r="0.075"></circle><circle class="pin  " data-pin="C1.A" cx="12" cy="15.5" r="0.075"></circle><circle class="pin  " data-pin="C1.B" cx="6" cy="15.5" r="0.075"></circle><circle class="pin  " data-pin="A1.A" cx="17" cy="3.5" r="0.075"></circle><circle class="pin  " data-pin="A1.B" cx="23" cy="3.5" r="0.075"></circle><circle class="pin  " data-pin="A2.A" cx="17" cy="4.5" r="0.075"></circle><circle class="pin  " data-pin="A2.B" cx="23" cy="4.5" r="0.075"></circle><circle class="pin  " data-pin="A3.A" cx="17" cy="5.5" r="0.075"></circle><circle class="pin  " data-pin="A3.B" cx="23" cy="5.5" r="0.075"></circle><circle class="pin  " data-pin="A4.A" cx="8" cy="3.5" r="0.075"></circle><circle class="pin  " data-pin="A4.B" cx="14" cy="3.5" r="0.075"></circle><circle class="pin  " data-pin="CW.A" cx="-3.5" cy="7" r="0.075"></circle><circle class="pin  " data-pin="CW.B" cx="-3.5" cy="13" r="0.075"></circle><circle class="pin  " data-pin="C2.A" cx="12" cy="16.5" r="0.075"></circle><circle class="pin  " data-pin="C2.B" cx="6" cy="16.5" r="0.075"></circle><circle class="pin  " data-pin="C3b.A" cx="19" cy="18.5" r="0.075"></circle><circle class="pin  " data-pin="C3b.B" cx="13" cy="18.5" r="0.075"></circle><circle class="pin  " data-pin="C3a.A" cx="9" cy="18.5" r="0.075"></circle><circle class="pin  " data-pin="C3a.B" cx="3" cy="18.5" r="0.075"></circle><circle class="pin  " data-pin="C6.A" cx="9" cy="20.5" r="0.075"></circle><circle class="pin  " data-pin="C6.B" cx="3" cy="20.5" r="0.075"></circle><circle class="pin  " data-pin="C7.A" cx="9" cy="21.5" r="0.075"></circle><circle class="pin  " data-pin="C7.B" cx="3" cy="21.5" r="0.075"></circle>
</svg>
